<svg width="589" height="589" viewBox="0 0 589 589" fill="none" xmlns="http://www.w3.org/2000/svg">
<rect width="589" height="589" fill="#1E1E1E"/>
<rect x="0.5" y="0.5" width="588" height="588" fill="#D9D9D9" stroke="black"/>
<path d="M255 180V87H56V274H150" stroke="black" stroke-linecap="round"/>
<path d="M363 271V180H149V358H264" stroke="black"/>
<g filter="url(#filter0_d_0_1)">
<path d="M455.5 352H543V501H368V430M455.5 352H368V430M455.5 352V272H359.25H263V430H368" stroke="black" shape-rendering="crispEdges"/>
</g>
<g filter="url(#filter1_d_0_1)">
<path d="M315.5 234H403V383H228V312M315.5 234H228V312M315.5 234V154H219.25H123V312H228" stroke="black" shape-rendering="crispEdges"/>
</g>
<path d="M188.875 566C187.833 566 187.312 565.427 187.312 564.281V522.906C187.312 521.76 187.833 521.188 188.875 521.188H203.969C209.99 521.188 214.344 522.312 217.031 524.562C219.74 526.812 221.094 529.781 221.094 533.469C221.094 536.719 220 539.448 217.812 541.656C215.646 543.865 212.552 545.135 208.531 545.469V545.531C210.656 547.115 212.062 548.323 212.75 549.156C213.438 549.969 214.208 551.073 215.062 552.469L222.125 563.938C222.979 565.312 222.792 566 221.562 566H218C217.021 566 216.292 565.594 215.812 564.781L209.312 553.625C208.375 552.021 207.031 550.448 205.281 548.906C203.531 547.365 201.354 546.594 198.75 546.594H193.312V564.281C193.312 565.427 192.792 566 191.75 566H188.875ZM193.312 541.469H202.344C206.406 541.469 209.531 540.938 211.719 539.875C213.906 538.792 215 536.531 215 533.094C215 530.469 214 528.688 212 527.75C210 526.792 207.281 526.312 203.844 526.312H193.312V541.469ZM232.438 566C231.396 566 230.875 565.427 230.875 564.281V522.906C230.875 521.76 231.396 521.188 232.438 521.188H259.781C260.927 521.188 261.5 521.656 261.5 522.594V524.906C261.5 525.844 260.927 526.312 259.781 526.312H236.875V540.188H257.906C259.052 540.188 259.625 540.656 259.625 541.594V543.906C259.625 544.844 259.052 545.312 257.906 545.312H236.875V560.875H260.719C261.865 560.875 262.438 561.344 262.438 562.281V564.594C262.438 565.531 261.865 566 260.719 566H232.438ZM268.125 543.594C268.125 536.302 269.927 530.594 273.531 526.469C277.156 522.323 282.354 520.25 289.125 520.25C293.083 520.25 296.354 520.927 298.938 522.281C301.521 523.615 303.375 525.448 304.5 527.781C305.083 528.99 304.99 529.823 304.219 530.281L301.75 531.719C300.917 532.198 300.177 531.802 299.531 530.531C298.844 529.219 297.719 527.99 296.156 526.844C294.594 525.698 292.354 525.125 289.438 525.125C284.229 525.125 280.438 526.75 278.062 530C275.708 533.229 274.531 537.76 274.531 543.594C274.531 549.427 275.708 553.969 278.062 557.219C280.438 560.448 284.229 562.062 289.438 562.062C292.438 562.062 294.833 561.375 296.625 560C298.438 558.625 299.75 557.188 300.562 555.688C301.208 554.479 301.958 554.115 302.812 554.594L305.406 556.062C306.156 556.5 306.219 557.333 305.594 558.562C304.365 560.958 302.365 562.958 299.594 564.562C296.823 566.146 293.333 566.938 289.125 566.938C282.354 566.938 277.156 564.875 273.531 560.75C269.927 556.604 268.125 550.885 268.125 543.594ZM314.375 548.906V522.906C314.375 521.76 314.896 521.188 315.938 521.188H318.812C319.854 521.188 320.375 521.76 320.375 522.906V547.969C320.375 553.802 321.198 557.615 322.844 559.406C324.51 561.177 327.219 562.062 330.969 562.062C334.719 562.062 337.417 561.177 339.062 559.406C340.729 557.615 341.562 553.802 341.562 547.969V522.906C341.562 521.76 342.083 521.188 343.125 521.188H346C347.042 521.188 347.562 521.76 347.562 522.906V548.906C347.562 555.51 346.042 560.167 343 562.875C339.979 565.583 335.969 566.938 330.969 566.938C325.969 566.938 321.948 565.583 318.906 562.875C315.885 560.167 314.375 555.51 314.375 548.906ZM359.75 566C358.708 566 358.188 565.427 358.188 564.281V522.906C358.188 521.76 358.708 521.188 359.75 521.188H374.844C380.865 521.188 385.219 522.312 387.906 524.562C390.615 526.812 391.969 529.781 391.969 533.469C391.969 536.719 390.875 539.448 388.688 541.656C386.521 543.865 383.427 545.135 379.406 545.469V545.531C381.531 547.115 382.938 548.323 383.625 549.156C384.312 549.969 385.083 551.073 385.938 552.469L393 563.938C393.854 565.312 393.667 566 392.438 566H388.875C387.896 566 387.167 565.594 386.688 564.781L380.188 553.625C379.25 552.021 377.906 550.448 376.156 548.906C374.406 547.365 372.229 546.594 369.625 546.594H364.188V564.281C364.188 565.427 363.667 566 362.625 566H359.75ZM364.188 541.469H373.219C377.281 541.469 380.406 540.938 382.594 539.875C384.781 538.792 385.875 536.531 385.875 533.094C385.875 530.469 384.875 528.688 382.875 527.75C380.875 526.792 378.156 526.312 374.719 526.312H364.188V541.469Z" fill="#1D1B20"/>
<defs>
<filter id="filter0_d_0_1" x="258.5" y="271.5" width="289" height="238" filterUnits="userSpaceOnUse" color-interpolation-filters="sRGB">
<feFlood flood-opacity="0" result="BackgroundImageFix"/>
<feColorMatrix in="SourceAlpha" type="matrix" values="0 0 0 0 0 0 0 0 0 0 0 0 0 0 0 0 0 0 127 0" result="hardAlpha"/>
<feOffset dy="4"/>
<feGaussianBlur stdDeviation="2"/>
<feComposite in2="hardAlpha" operator="out"/>
<feColorMatrix type="matrix" values="0 0 0 0 0 0 0 0 0 0 0 0 0 0 0 0 0 0 0.25 0"/>
<feBlend mode="normal" in2="BackgroundImageFix" result="effect1_dropShadow_0_1"/>
<feBlend mode="normal" in="SourceGraphic" in2="effect1_dropShadow_0_1" result="shape"/>
</filter>
<filter id="filter1_d_0_1" x="118.5" y="153.5" width="289" height="238" filterUnits="userSpaceOnUse" color-interpolation-filters="sRGB">
<feFlood flood-opacity="0" result="BackgroundImageFix"/>
<feColorMatrix in="SourceAlpha" type="matrix" values="0 0 0 0 0 0 0 0 0 0 0 0 0 0 0 0 0 0 127 0" result="hardAlpha"/>
<feOffset dy="4"/>
<feGaussianBlur stdDeviation="2"/>
<feComposite in2="hardAlpha" operator="out"/>
<feColorMatrix type="matrix" values="0 0 0 0 0 0 0 0 0 0 0 0 0 0 0 0 0 0 0.25 0"/>
<feBlend mode="normal" in2="BackgroundImageFix" result="effect1_dropShadow_0_1"/>
<feBlend mode="normal" in="SourceGraphic" in2="effect1_dropShadow_0_1" result="shape"/>
</filter>
</defs>
</svg>
